<svg width="24" height="24" viewBox="0 0 24 24" fill="none" xmlns="http://www.w3.org/2000/svg">
<path d="M9.17666 17.6829C9.27698 17.7834 9.39614 17.8632 9.52732 17.9176C9.6585 17.972 9.79912 18 9.94114 18C10.0832 18 10.2238 17.972 10.355 17.9176C10.4861 17.8632 10.6053 17.7834 10.7056 17.6829L15.6829 12.7056C15.7834 12.6053 15.8632 12.4861 15.9176 12.355C15.972 12.2238 16 12.0832 16 11.9411C16 11.7991 15.972 11.6585 15.9176 11.5273C15.8632 11.3961 15.7834 11.277 15.6829 11.1767L10.7056 6.1994C10.6052 6.099 10.486 6.01937 10.3549 5.96503C10.2237 5.9107 10.0831 5.88274 9.94114 5.88274C9.79916 5.88274 9.65858 5.9107 9.52741 5.96503C9.39624 6.01937 9.27705 6.099 9.17666 6.1994C9.07627 6.29979 8.99663 6.41897 8.9423 6.55014C8.88797 6.68131 8.86 6.8219 8.86 6.96388C8.86 7.10585 8.88797 7.24644 8.9423 7.37761C8.99663 7.50878 9.07627 7.62796 9.17666 7.72836L13.384 11.9466L9.17666 16.1539C8.75375 16.5768 8.7646 17.2708 9.17666 17.6829Z" fill="#00374D"/>
</svg>
