<svg width="25" height="25" viewBox="0 0 25 25" fill="none" xmlns="http://www.w3.org/2000/svg">
<path d="M4.25001 12.5C4.24979 11.0518 4.63082 9.62893 5.35482 8.37459C6.07882 7.12025 7.12026 6.07861 8.37446 5.35437C9.62865 4.63013 11.0514 4.24881 12.4997 4.24875C13.948 4.2487 15.3708 4.6299 16.625 5.35405C16.7972 5.45193 17.0011 5.47775 17.1922 5.42586C17.3833 5.37397 17.5462 5.24858 17.6452 5.07707C17.7442 4.90555 17.7714 4.70183 17.7208 4.51036C17.6702 4.31888 17.5459 4.15521 17.375 4.05505C15.5163 2.98192 13.3554 2.55208 11.2275 2.83219C9.09964 3.11229 7.12362 4.0867 5.60594 5.60428C4.08826 7.12186 3.11373 9.09782 2.83349 11.2257C2.55324 13.3536 2.98294 15.5145 4.05595 17.3733C5.12896 19.232 6.78531 20.6848 8.76813 21.5063C10.7509 22.3278 12.9494 22.4721 15.0226 21.9168C17.0958 21.3615 18.9278 20.1377 20.2345 18.4351C21.5413 16.7325 22.2497 14.6463 22.25 12.5C22.25 12.3011 22.171 12.1104 22.0303 11.9697C21.8897 11.8291 21.6989 11.75 21.5 11.75C21.3011 11.75 21.1103 11.8291 20.9697 11.9697C20.829 12.1104 20.75 12.3011 20.75 12.5C20.75 14.6881 19.8808 16.7865 18.3336 18.3337C16.7865 19.8809 14.6881 20.75 12.5 20.75C10.312 20.75 8.21356 19.8809 6.66638 18.3337C5.11921 16.7865 4.25001 14.6881 4.25001 12.5Z" fill="#9E9E9E"/>
<path d="M23.5319 5.53122C23.6017 5.46148 23.657 5.3787 23.6947 5.28759C23.7325 5.19648 23.7519 5.09883 23.7519 5.00021C23.7519 4.9016 23.7325 4.80395 23.6947 4.71284C23.657 4.62173 23.6017 4.53895 23.5319 4.46921C23.4622 4.39948 23.3794 4.34417 23.2883 4.30643C23.1972 4.26869 23.0996 4.24927 23.0009 4.24927C22.9023 4.24927 22.8047 4.26869 22.7136 4.30643C22.6225 4.34417 22.5397 4.39948 22.4699 4.46921L12.5009 14.4397L8.53195 10.4692C8.46222 10.3995 8.37943 10.3442 8.28832 10.3064C8.19721 10.2687 8.09956 10.2493 8.00095 10.2493C7.90233 10.2493 7.80468 10.2687 7.71357 10.3064C7.62246 10.3442 7.53968 10.3995 7.46995 10.4692C7.40022 10.5389 7.3449 10.6217 7.30716 10.7128C7.26942 10.8039 7.25 10.9016 7.25 11.0002C7.25 11.0988 7.26942 11.1965 7.30716 11.2876C7.3449 11.3787 7.40022 11.4615 7.46995 11.5312L11.9699 16.0312C12.0396 16.1011 12.1224 16.1565 12.2135 16.1943C12.3046 16.2321 12.4023 16.2516 12.5009 16.2516C12.5996 16.2516 12.6973 16.2321 12.7884 16.1943C12.8795 16.1565 12.9623 16.1011 13.0319 16.0312L23.5319 5.53122Z" fill="#9E9E9E"/>
</svg>
