<?xml version="1.0" encoding="UTF-8"?><svg id="_レイヤー_1" xmlns="http://www.w3.org/2000/svg" viewBox="0 0 64.2 71.8"><defs><style>.cls-1{fill:#979797;}</style></defs><path class="cls-1" d="m61.63,31.19c0,2.11-1.71,3.83-3.83,3.83s-3.83-1.71-3.83-3.83,1.71-3.82,3.83-3.82,3.83,1.71,3.83,3.82Z"/><path class="cls-1" d="m63.95,4.01c.66-1.55-.07-3.25-1.66-3.83-1.59-.58-3.14.3-3.95,1.75-1.32,2.34-8.17,15.27-9.32,17.41-1.15,2.14-2.59,5.21-3.79,4.74-1.1-.43-2.39-5.14-2.94-6.48-.98-2.39-2.97-5.22-6.3-4.51-2.55.54-4,2.55-6.31,6.96-1.27,2.42-2.06,4.03-3.22,5.6-2.37,3.22-3.69-2.08-4.47-4.82-1.04-3.68-2.95-8.89-7.12-8.89-2.33,0-4.82,1.36-7.92,6.36-1.81,2.92-6.05,11.09-6.67,12.55-.67,1.55-.1,3.23,1.45,3.9,1.55.66,3.07-.02,3.98-1.44,2.97-4.61,3.79-6.41,5.31-8.52,1.63-2.25,3.84-4.27,5.52,1.15,1.06,3.41,2.91,9.01,7.92,9.05,3.02.02,6.14-2.57,7.6-5.05,1.65-2.8,2.07-4.3,3.33-5.65.64-.69,1.6-.94,2.5,1.07.87,1.94,2.67,8.06,5.88,9.4,4.53,1.89,8.81-7.28,10.29-10.2,1.19-2.36,9.38-19.31,9.9-20.54h0Z"/><path class="cls-1" d="m9.95,51.75c.84,1.25,1.24,1.98,1.61,2.7.12.24-.06.58-.33.58h-2.93c-.39,0-.56-.26-.63-.39-1.33-2.49-3.05-5.02-4.98-7.53-.16-.21-.09-.64.3-.64h2.74c.31,0,.57.19.76.44.5.64.93,1.17,1.5,1.96,2.22-1.18,3.69-3.15,4.35-5.54.06-.19.06-.57-.42-.57H.9c-.31,0-.56-.25-.56-.55v-2.06c0-.31.25-.55.56-.55h14.68c.7,0,.76.45.75.68-.26,5.78-2.61,8.83-6.37,11.47"/><path class="cls-1" d="m26.94,54.48c0,.31-.25.55-.56.55h-2.28c-.31,0-.55-.25-.55-.55v-6.6c-1.85.85-4.16,1.33-6.48,1.61-.29.04-.67-.16-.67-.56v-2.07c0-.35.25-.53.58-.6,6.66-1.1,9.83-4.06,10.85-6.39.1-.24.36-.44.66-.44.81,0,2.35,0,2.62,0,.38,0,.58.32.51.63-.71,2.33-2.62,4.82-4.69,6.23v8.21h0Z"/><path class="cls-1" d="m43.02,43.18h4.55c.31,0,.56.25.56.56v2.04c0,.31-.25.55-.56.55h-4.59c-.33,5.67-3.23,8.08-9.04,8.88-.21.03-.6-.14-.6-.49v-2.11c0-.41.33-.51.54-.56,3.74-.76,5.46-1.99,5.69-5.7h-6.88c-.31,0-.55-.25-.55-.55v-2.06c0-.31.25-.55.55-.55h6.92v-3.21c0-.31.25-.55.55-.55h2.29c.31,0,.55.25.55.55v3.21Z"/><path class="cls-1" d="m63.4,41.83h-1.48c-.33,0-.52-.15-.59-.36-.18-.51-.52-1.52-.56-1.64-.05-.18.04-.41.32-.41h1.66c.26,0,.45.15.52.35.03.1.33,1.03.51,1.58.09.28-.03.49-.38.49h0Z"/><path class="cls-1" d="m60.15,41.83h-1.49c-.33,0-.51-.15-.59-.36-.18-.51-.52-1.52-.56-1.64-.05-.18.04-.41.32-.41h1.66c.26,0,.45.15.52.35.03.1.34,1.03.52,1.58.09.28-.03.49-.38.49h0Z"/><path class="cls-1" d="m64.19,54.47c0,.31-.25.55-.55.55h-9.14c-3.08,0-4.45-1.13-4.45-4.23v-10.82c0-.31.25-.55.56-.55h2.18c.31,0,.55.25.55.55v3.22h10.07c.31,0,.56.25.56.55v2.04c0,.31-.25.55-.56.55h-10.06v3.76c0,1.41.61,1.74,1.91,1.74h8.39c.31,0,.55.25.55.56v2.07Z"/><path class="cls-1" d="m16.88,68.83c.24,0,1,.01,1,.98,0,.74-.39,1-1,1H5.52c-.26,0-1.01,0-1.01-.98,0-.74.41-1,1.01-1h11.37Zm-1.12-8.76c.23,0,1,0,1,.98,0,.79-.47,1-1,1H6.59c-.23,0-1.01,0-1.01-.98,0-.86.54-1,1.01-1h9.17Z"/><path class="cls-1" d="m30.25,69.46c.2,0,.92,0,.92.91s-.64.91-.92.91h-9.23c-.21,0-.92,0-.92-.91,0-.83.58-.91.92-.91h5.45c.24-1.53.51-4.59.51-5.07,0-.35-.14-.42-.47-.42h-4.33c-.21,0-.92-.03-.92-.91,0-.73.45-.92.92-.92h5.36c.41,0,1.45.06,1.45,1.48,0,.32-.12,2.26-.61,5.84h1.86Z"/><path class="cls-1" d="m33.43,66.47c-.33,0-1.12,0-1.12-1.03s.68-1.04,1.12-1.04h11.26c.32,0,1.12,0,1.12,1.03s-.71,1.04-1.12,1.04h-11.26Z"/><path class="cls-1" d="m48.24,61.31c-.32,0-1-.08-1-.95,0-.71.42-.97,1-.97h7.52c.7,0,1.65.12,1.65,1.3,0,1.06-1.15,3.48-2.47,5.28.85.64,1.98,1.5,3.78,3.18.83.77.97,1.03.97,1.42,0,.64-.58,1.14-1.16,1.14-.48,0-.68-.23-1.21-.83-1.2-1.36-2.89-2.91-3.56-3.44-2.13,2.41-5.15,4.36-6.04,4.36-.51,0-.97-.53-.97-1.12,0-.47.15-.54,1.23-1.11,4.69-2.45,7.01-7.37,7.01-8.02,0-.23-.17-.24-.42-.24h-6.33,0Z"/></svg>