<svg width="16" height="17" viewBox="0 0 16 17" fill="none" xmlns="http://www.w3.org/2000/svg">
<path d="M3.33333 14.5C2.96667 14.5 2.65267 14.3696 2.39133 14.1087C2.13044 13.8473 2 13.5333 2 13.1667V3.83333C2 3.46667 2.13044 3.15267 2.39133 2.89133C2.65267 2.63044 2.96667 2.5 3.33333 2.5H7.33333C7.52222 2.5 7.68067 2.56378 7.80867 2.69133C7.93622 2.81933 8 2.97778 8 3.16667C8 3.35556 7.93622 3.51378 7.80867 3.64133C7.68067 3.76933 7.52222 3.83333 7.33333 3.83333H3.33333V13.1667H12.6667V9.16667C12.6667 8.97778 12.7307 8.81933 12.8587 8.69133C12.9862 8.56378 13.1444 8.5 13.3333 8.5C13.5222 8.5 13.6804 8.56378 13.808 8.69133C13.936 8.81933 14 8.97778 14 9.16667V13.1667C14 13.5333 13.8696 13.8473 13.6087 14.1087C13.3473 14.3696 13.0333 14.5 12.6667 14.5H3.33333ZM6 10.5C5.87778 10.3778 5.81667 10.2222 5.81667 10.0333C5.81667 9.84444 5.87778 9.68889 6 9.56667L11.7333 3.83333H10C9.81111 3.83333 9.65289 3.76933 9.52533 3.64133C9.39733 3.51378 9.33333 3.35556 9.33333 3.16667C9.33333 2.97778 9.39733 2.81933 9.52533 2.69133C9.65289 2.56378 9.81111 2.5 10 2.5H13.3333C13.5222 2.5 13.6804 2.56378 13.808 2.69133C13.936 2.81933 14 2.97778 14 3.16667V6.5C14 6.68889 13.936 6.84711 13.808 6.97467C13.6804 7.10267 13.5222 7.16667 13.3333 7.16667C13.1444 7.16667 12.9862 7.10267 12.8587 6.97467C12.7307 6.84711 12.6667 6.68889 12.6667 6.5V4.76667L6.91667 10.5167C6.79444 10.6389 6.64444 10.7 6.46667 10.7C6.28889 10.7 6.13333 10.6333 6 10.5Z" fill="#333333"/>
</svg>
