<svg width="203" height="202" viewBox="0 0 203 202" fill="none" xmlns="http://www.w3.org/2000/svg">
<rect x="1" y="0.5" width="201" height="201" rx="100.5" fill="white"/>
<path d="M106.087 151.672C106.087 152.319 105.562 152.844 104.915 152.844H97.8775C97.2304 152.844 96.7056 152.319 96.7056 151.672C96.7056 151.024 97.2304 150.5 97.8775 150.5H104.915C105.562 150.5 106.087 151.024 106.087 151.672ZM90.5331 51.5002H106.433C107.08 51.5002 107.605 50.9755 107.605 50.3284C107.605 49.6812 107.08 49.1565 106.433 49.1565H90.5331C89.886 49.1565 89.3612 49.6812 89.3612 50.3284C89.3612 50.9755 89.886 51.5002 90.5331 51.5002ZM111.989 51.5002H112.259C112.907 51.5002 113.431 50.9755 113.431 50.3284C113.431 49.6812 112.907 49.1565 112.259 49.1565H111.989C111.341 49.1565 110.817 49.6812 110.817 50.3284C110.817 50.9755 111.341 51.5002 111.989 51.5002ZM146.192 121.064C146.192 128.009 140.845 133.726 134.053 134.321V151.375C134.053 156.295 130.05 160.297 125.131 160.297H77.662C72.7424 160.297 68.7402 156.295 68.7402 151.375V134.304C68.3425 134.263 67.9471 134.206 67.5562 134.13C64.6314 135.667 61.3476 136.557 58.0302 136.71C58.0122 136.71 57.9941 136.711 57.9763 136.711C57.5256 136.711 57.1129 136.452 56.9181 136.042C56.7156 135.616 56.7885 135.11 57.1028 134.758C58.457 133.243 59.4822 131.61 60.1567 129.896C57.9895 127.459 56.8047 124.351 56.8047 121.064C56.8047 114.189 62.0444 108.515 68.7402 107.824V94.1762C62.0441 93.4852 56.8047 87.811 56.8047 80.9356C56.8047 78.958 57.2413 77.0818 58.0183 75.3929C58.0267 75.3718 58.0309 75.35 58.0408 75.3291C58.048 75.3134 58.0588 75.3008 58.0668 75.2855C60.01 71.158 64.0108 68.1828 68.7402 67.6951V50.6248C68.7402 45.7053 72.7427 41.7031 77.662 41.7031H125.131C130.05 41.7031 134.053 45.7055 134.053 50.6248V67.6789C140.845 68.2747 146.192 73.9911 146.192 80.9359C146.192 87.8806 140.845 93.597 134.053 94.1928V107.807C140.845 108.403 146.192 114.119 146.192 121.064V121.064ZM131.709 107.807V94.193C124.916 93.5973 119.569 87.8809 119.569 80.9361C119.569 73.9913 124.916 68.2747 131.709 67.6791V58.9538H71.0837V67.6634C75.9285 68.0136 80.0634 70.9646 82.0907 75.1269C82.0989 75.1426 82.1102 75.1559 82.1179 75.1721C82.1242 75.1855 82.1266 75.1993 82.1322 75.2127C82.9619 76.9475 83.4276 78.8884 83.4276 80.9361C83.4276 87.9502 77.9732 93.7107 71.0837 94.2088V107.792C77.9732 108.29 83.4276 114.05 83.4276 121.065C83.4276 128.079 77.9732 133.839 71.0837 134.337V143.047H131.709V134.322C124.916 133.726 119.569 128.009 119.569 121.065C119.569 114.12 124.916 108.403 131.709 107.807ZM132.881 69.968C126.833 69.968 121.913 74.8883 121.913 80.9359C121.913 86.9834 126.833 91.9037 132.881 91.9037C138.928 91.9037 143.849 86.9834 143.849 80.9359C143.849 74.8883 138.928 69.968 132.881 69.968ZM71.0837 50.6248V56.6096H131.709V50.6248C131.709 46.9977 128.758 44.0469 125.131 44.0469H77.662C74.0348 44.0469 71.0837 46.9977 71.0837 50.6248ZM60.7155 75.2923L69.9119 79.6177L79.4237 75.144C77.4848 72.0392 74.0385 69.9678 70.116 69.9678C66.1309 69.9678 62.6362 72.1046 60.7155 75.2923ZM70.116 91.9037C76.1636 91.9037 81.0838 86.9834 81.0838 80.9359C81.0838 79.6445 80.8577 78.4051 80.4459 77.2534L70.4106 81.9734C70.2527 82.0477 70.0823 82.085 69.9119 82.085C69.7415 82.085 69.5711 82.0477 69.4131 81.9734L59.7299 77.4191C59.3547 78.5239 59.1482 79.7061 59.1482 80.9361C59.1482 86.9837 64.0684 91.9039 70.116 91.9039V91.9037ZM67.6422 131.752C68.448 131.938 69.2805 132.032 70.116 132.032C76.1636 132.032 81.0838 127.112 81.0838 121.064C81.0838 115.016 76.1636 110.096 70.116 110.096C64.0684 110.096 59.1482 115.016 59.1482 121.064C59.1482 123.98 60.2805 126.725 62.3362 128.794C62.6493 129.109 62.7573 129.574 62.6151 129.995C62.1384 131.406 61.4634 132.768 60.5992 134.066C62.7761 133.673 64.8873 132.929 66.8134 131.867C67.0661 131.728 67.3609 131.686 67.6424 131.752L67.6422 131.752ZM131.709 151.375V145.39H71.0837V151.375C71.0837 155.002 74.0345 157.953 77.6617 157.953H125.131C128.758 157.953 131.709 155.002 131.709 151.375H131.709ZM143.849 121.064C143.849 115.017 138.928 110.097 132.881 110.097C126.833 110.097 121.913 115.017 121.913 121.064C121.913 127.112 126.833 132.032 132.881 132.032C138.928 132.032 143.849 127.112 143.849 121.064ZM140.343 117.919C140.343 121.55 136.971 124.922 133.709 128.184C133.48 128.412 133.181 128.527 132.881 128.527C132.581 128.527 132.281 128.412 132.052 128.184C128.79 124.922 125.418 121.55 125.418 117.919C125.418 115.539 127.355 113.602 129.735 113.602C131.212 113.602 132.175 114.165 132.88 114.969C133.586 114.165 134.549 113.602 136.026 113.602C138.406 113.602 140.343 115.539 140.343 117.919H140.343ZM137.999 117.919C137.999 116.831 137.114 115.946 136.026 115.946C135.15 115.946 134.665 116.184 133.929 117.657C133.73 118.054 133.325 118.305 132.881 118.305C132.437 118.305 132.031 118.054 131.833 117.657C131.096 116.184 130.611 115.946 129.735 115.946C128.647 115.946 127.762 116.831 127.762 117.919C127.762 120.328 130.241 123.035 132.881 125.695C135.52 123.035 137.999 120.328 137.999 117.919ZM130.632 74.5346L139.962 79.921C140.325 80.1303 140.548 80.5173 140.548 80.9359C140.548 81.3545 140.325 81.7414 139.962 81.9507L130.632 87.3371C130.451 87.4419 130.249 87.4941 130.046 87.4941C129.844 87.4941 129.642 87.4419 129.46 87.3371C129.098 87.1278 128.875 86.7409 128.875 86.3223V75.5495C128.875 75.1309 129.098 74.7439 129.46 74.5346C129.823 74.3251 130.27 74.3251 130.632 74.5346ZM131.218 84.2926L137.032 80.9359L131.218 77.5791V84.2926ZM64.6096 119.892H64.3387C63.6916 119.892 63.1668 120.417 63.1668 121.064C63.1668 121.711 63.6916 122.236 64.3387 122.236H64.6096C65.2567 122.236 65.7815 121.711 65.7815 121.064C65.7815 120.417 65.2567 119.892 64.6096 119.892ZM71.4234 121.064C71.4234 120.417 70.8986 119.892 70.2515 119.892H69.9805C69.3334 119.892 68.8087 120.417 68.8087 121.064C68.8087 121.711 69.3334 122.236 69.9805 122.236H70.2515C70.8986 122.236 71.4234 121.711 71.4234 121.064ZM75.6224 122.236H75.8934C76.5405 122.236 77.0652 121.711 77.0652 121.064C77.0652 120.417 76.5405 119.892 75.8934 119.892H75.6224C74.9753 119.892 74.4505 120.417 74.4505 121.064C74.4505 121.711 74.9753 122.236 75.6224 122.236ZM121.945 101C121.945 106.396 119.853 111.311 116.44 114.982C116.389 115.051 116.332 115.116 116.265 115.174C116.26 115.178 116.255 115.181 116.25 115.185C112.506 119.104 107.231 121.549 101.396 121.549C95.5609 121.549 90.2856 119.104 86.5415 115.184C86.537 115.18 86.5319 115.178 86.5274 115.174C86.4602 115.116 86.403 115.051 86.3523 114.982C82.9389 111.311 80.8473 106.396 80.8473 101C80.8473 89.6694 90.0655 80.4514 101.396 80.4514C112.726 80.4514 121.945 89.6696 121.945 101H121.945ZM101.396 119.205C106.216 119.205 110.601 117.319 113.861 114.25C110.581 110.917 106.099 109.023 101.396 109.023C96.6939 109.023 92.2122 110.917 88.9316 114.25C92.1918 117.319 96.5767 119.205 101.396 119.205ZM119.601 101C119.601 90.9617 111.434 82.7952 101.396 82.7952C91.3584 82.7952 83.1916 90.962 83.1916 101C83.1916 105.376 84.7441 109.395 87.3262 112.538C91.0398 108.8 96.0951 106.68 101.397 106.68C106.698 106.68 111.753 108.8 115.467 112.538C118.049 109.395 119.602 105.376 119.602 101H119.601ZM110.329 95.3602C110.329 100.286 106.322 104.292 101.396 104.292C96.471 104.292 92.4641 100.286 92.4641 95.3602C92.4641 90.4348 96.4712 86.428 101.396 86.428C106.322 86.428 110.329 90.4348 110.329 95.3602ZM107.985 95.3602C107.985 91.7274 105.029 88.7717 101.396 88.7717C97.7634 88.7717 94.8079 91.7272 94.8079 95.3602C94.8079 98.9933 97.7636 101.949 101.396 101.949C105.029 101.949 107.985 98.9933 107.985 95.3602Z" fill="#00374D" stroke="#00374D" stroke-width="0.8"/>
<rect x="1" y="0.5" width="201" height="201" rx="100.5" stroke="#00374D"/>
</svg>
