<svg width="202" height="202" viewBox="0 0 202 202" fill="none" xmlns="http://www.w3.org/2000/svg">
<rect x="0.5" y="0.5" width="201" height="201" rx="100.5" fill="white"/>
<path d="M78.3724 132.702C81.1989 130.639 83.0402 127.304 83.0402 123.545C83.0402 117.297 77.957 112.214 71.7092 112.214C65.4615 112.214 60.3784 117.297 60.3784 123.545C60.3784 127.304 62.2196 130.639 65.0461 132.702C57.5316 135.225 51.8975 141.915 51.0112 150.198C50.9619 150.657 51.1101 151.116 51.4192 151.46C51.7283 151.804 52.1688 152 52.6308 152H90.7875C91.2497 152 91.6901 151.804 91.999 151.46C92.3079 151.116 92.4564 150.657 92.4071 150.198C91.5207 141.915 85.8867 135.225 78.3724 132.702ZM63.6362 123.545C63.6362 119.093 67.2576 115.472 71.709 115.472C76.1604 115.472 79.7821 119.093 79.7821 123.545C79.7821 127.995 76.1633 131.615 71.7143 131.618C71.7125 131.618 71.7107 131.618 71.709 131.618C71.7074 131.618 71.7054 131.618 71.7037 131.618C67.2548 131.615 63.6362 127.995 63.6362 123.545ZM54.5373 148.742C56.241 140.723 63.3259 134.878 71.705 134.876H71.7092H71.7135C80.0924 134.878 87.1772 140.723 88.881 148.742H54.5373ZM113.163 116.326C113.702 115.347 113.94 114.279 113.909 113.231C114.876 113.441 115.888 113.409 116.872 113.125C118.445 112.672 119.743 111.637 120.528 110.21C121.1 109.17 121.332 108.029 121.259 106.916C122.086 107.026 122.935 106.963 123.761 106.723C125.326 106.269 126.617 105.236 127.398 103.817C128.241 102.285 128.344 100.534 127.828 98.9794C127.893 98.9631 127.958 98.9456 128.023 98.9269C129.603 98.4748 130.907 97.4378 131.694 96.0063C132.357 94.8002 132.576 93.4113 132.348 92.0749L137.065 90.1066L137.571 91.4106C138.001 92.5204 138.84 93.3974 139.934 93.88C140.514 94.136 141.128 94.2643 141.741 94.2643C142.286 94.2643 142.83 94.1637 143.351 93.9615L149.146 91.7147C150.256 91.2846 151.133 90.4452 151.616 89.3514C152.098 88.2577 152.127 87.0441 151.697 85.9345L140.027 55.8286C139.596 54.7188 138.757 53.8418 137.663 53.3592C136.569 52.8764 135.356 52.8479 134.246 53.278L128.451 55.5246C127.341 55.9546 126.464 56.794 125.982 57.8879C125.499 58.9815 125.47 60.1952 125.9 61.3049L126.788 63.5959L123.562 65.3231C121.792 66.2437 120.041 65.6082 117.099 64.4053C113.151 62.7918 107.803 60.6104 100.842 64.914C95.8029 61.9539 91.4845 62.9637 87.9752 63.7857C85.2874 64.4155 83.1638 64.9132 81.1305 63.7686C81.0922 63.7472 81.0535 63.7273 81.014 63.7089L77.3135 62.0017L78.2926 59.7869C78.7735 58.6981 78.801 57.4845 78.3695 56.3696C77.9381 55.2548 77.101 54.3757 76.0124 53.8946L70.3272 51.3822C69.2385 50.9008 68.0251 50.8732 66.9098 51.3048C65.795 51.7363 64.916 52.5734 64.4348 53.662L51.3818 83.1949C50.9008 84.2837 50.8733 85.4973 51.3048 86.6122C51.7363 87.727 52.5734 88.6061 53.6619 89.0873L59.3471 91.6C59.9327 91.8588 60.5444 91.9812 61.1469 91.9812C62.8626 91.9812 64.5024 90.9875 65.2395 89.32L65.8661 87.902C67.7351 88.735 68.8208 89.2074 69.2395 89.3699C69.9495 89.6456 70.1823 90.6407 70.481 92.2473C70.6457 93.1329 70.8174 94.0388 71.166 94.8678L69.6062 97.7843C68.8253 99.2445 68.6612 100.926 69.144 102.519C69.6268 104.112 70.6968 105.42 72.1568 106.201C73.1185 106.715 74.1747 106.957 75.2221 106.929C74.8348 109.463 76.0503 112.083 78.4359 113.359C80.3435 114.379 82.5534 114.296 84.3316 113.334C84.8877 114.528 85.8189 115.544 87.0294 116.191C88.739 117.106 90.7184 117.139 92.4055 116.421C92.928 117.782 93.9253 118.948 95.2765 119.671C96.1874 120.158 97.1837 120.405 98.1914 120.405C98.7994 120.405 99.4117 120.315 100.011 120.133C101.348 119.728 102.482 118.909 103.274 117.793L104.872 118.711C105.777 119.231 106.782 119.495 107.806 119.495C108.352 119.495 108.904 119.42 109.448 119.267C111.024 118.825 112.378 117.754 113.163 116.326ZM129.628 58.5623L135.424 56.3157C135.563 56.2617 135.709 56.2348 135.855 56.2348C136.021 56.2348 136.189 56.2701 136.348 56.3401C136.646 56.4717 136.873 56.7083 136.989 57.0064L148.66 87.1121C148.775 87.4104 148.766 87.7386 148.635 88.0361C148.504 88.3338 148.267 88.5613 147.969 88.677L142.174 90.9238C141.876 91.0392 141.547 91.0309 141.249 90.8995C140.952 90.7682 140.724 90.5314 140.609 90.2333L128.938 60.1276C128.697 59.5055 129.006 58.8034 129.628 58.5623ZM115.866 67.4212C118.818 68.6279 121.869 69.8762 125.082 68.2046L127.975 66.6562L135.887 87.0679L130.969 89.12C130.506 88.576 129.949 88.1137 129.316 87.7531L113.903 78.9675C109.913 76.6934 105.582 78.4468 101.394 80.1426C96.2118 82.2403 91.6936 84.0693 87.4743 79.5301C91.5836 77.0308 95.0998 74.3146 97.9393 71.4451C99.2244 70.1468 100.517 69.0502 101.784 68.1842C107.739 64.0997 111.871 65.788 115.866 67.4212ZM62.2595 88.0028C62.1302 88.2956 61.892 88.5212 61.5886 88.6387C61.2854 88.756 60.9567 88.7494 60.6643 88.6199L54.9792 86.1072C54.6864 85.9779 54.4605 85.7394 54.3433 85.436C54.2258 85.1328 54.2323 84.8044 54.3618 84.512L67.4146 54.9793C67.5439 54.6865 67.7824 54.4606 68.0856 54.3434C68.3892 54.2259 68.7174 54.2326 69.0098 54.3621L74.695 56.8748C74.9878 57.0041 75.2136 57.2426 75.3309 57.546C75.4484 57.8492 75.4418 58.1776 75.3123 58.47L62.2595 88.0028ZM70.4183 86.3326C70.0556 86.1919 68.9683 85.7177 67.1831 84.9221L75.9961 64.9824L79.5925 66.6416C82.7106 68.3652 85.7643 67.6499 88.7183 66.958C91.7081 66.2573 94.56 65.591 97.8953 67.0567C97.1356 67.6933 96.3765 68.3927 95.6235 69.1535C92.7298 72.0778 89.0585 74.8471 84.711 77.3845C84.1718 77.6997 83.7951 78.2311 83.6776 78.8432C83.5601 79.4547 83.7128 80.0874 84.0948 80.5775C87.0408 84.368 90.2308 85.5967 93.3804 85.5965C96.6042 85.5961 99.7858 84.3086 102.616 83.1628C106.402 81.6301 109.671 80.3065 112.289 81.7983L127.703 90.5839C128.221 90.8794 128.632 91.3176 128.892 91.8513C129.3 92.6917 129.281 93.634 128.839 94.4363C128.474 95.1012 127.866 95.5835 127.127 95.7947C126.405 96.0014 125.652 95.9171 125.01 95.5575C121.743 93.7275 118.04 91.6534 114.415 89.578C113.634 89.1306 112.639 89.4015 112.192 90.1824C111.745 90.9633 112.016 91.9586 112.796 92.4053C116.434 94.4876 120.142 96.5648 123.414 98.3977L123.415 98.3983C124.782 99.1674 125.288 100.894 124.544 102.246C124.182 102.904 123.582 103.382 122.853 103.594C122.125 103.805 121.361 103.723 120.704 103.361L120.701 103.36L106.756 95.5127C105.971 95.0714 104.978 95.3496 104.537 96.1335C104.096 96.9177 104.374 97.911 105.158 98.352C105.158 98.352 116.456 104.742 116.545 104.792C117.911 105.561 118.418 107.288 117.674 108.64C117.31 109.302 116.705 109.783 115.971 109.994C115.246 110.203 114.488 110.12 113.84 109.759L113.831 109.754L105.729 105.167C105.218 104.542 104.585 104.02 103.855 103.63C102.331 102.815 100.597 102.69 99.0395 103.186C98.5872 101.613 97.5195 100.239 95.9947 99.4254C94.471 98.6119 92.7374 98.4866 91.1799 98.9823C90.7276 97.4086 89.6598 96.0352 88.1349 95.2215C86.8663 94.5442 85.4348 94.3453 84.0799 94.5945C83.8185 92.6768 82.67 90.9122 80.8515 89.9415C78.396 88.6309 75.4459 89.1392 73.5583 90.9932C73.2071 89.25 72.5901 87.1758 70.4183 86.3326ZM73.6933 103.327C73.0008 102.957 72.4924 102.334 72.2619 101.574C72.0314 100.814 72.1087 100.013 72.4791 99.3209L75.3091 94.0295C76.0782 92.5915 77.876 92.0466 79.3172 92.8161C80.6758 93.5412 81.2453 95.1979 80.632 96.6072L76.9094 103.05C75.9894 103.763 74.7253 103.879 73.6933 103.327ZM79.9725 110.486C78.533 109.716 77.9881 107.919 78.7578 106.479L83.3656 98.3873C84.2862 97.662 85.5588 97.5398 86.6006 98.0957C87.7374 98.7023 88.3497 100.025 88.1019 101.288L83.9881 109.255C83.2111 110.703 81.41 111.255 79.9725 110.486ZM88.5659 113.318C87.5379 112.769 86.9339 111.658 87.0117 110.501L90.9856 102.805C91.897 101.913 93.3281 101.695 94.4604 102.3C95.5966 102.906 96.2089 104.228 95.9619 105.491L92.3144 112.501C91.4391 113.648 89.8455 114.003 88.5659 113.318ZM99.0666 117.015C98.3062 117.245 97.5058 117.169 96.8133 116.798C95.7481 116.228 95.1462 115.078 95.2668 113.885L98.843 107.011C99.7546 106.117 101.186 105.898 102.319 106.503C103.009 106.872 103.516 107.493 103.748 108.253C103.981 109.015 103.904 109.816 103.533 110.51L100.82 115.584C100.45 116.276 99.8269 116.785 99.0666 117.015ZM110.309 114.756C109.942 115.422 109.308 115.923 108.569 116.13C107.854 116.33 107.118 116.244 106.495 115.886L104.856 114.945L106.407 112.046C106.802 111.306 107.039 110.509 107.114 109.695C107.114 109.695 109.101 110.851 109.189 110.901C110.554 111.666 111.057 113.396 110.309 114.756ZM72.0699 59.5808C72.0204 60.6464 71.1167 61.4701 70.0511 61.4206C68.9858 61.3713 68.1621 60.4674 68.2114 59.4018C68.2607 58.3365 69.1646 57.5126 70.2301 57.5621C71.2957 57.6116 72.1191 58.5154 72.0699 59.5808ZM132.125 61.3874C132.125 60.3236 132.993 59.456 134.057 59.456C135.12 59.456 135.988 60.3234 135.988 61.3874C135.988 62.4511 135.12 63.3188 134.057 63.3188C132.993 63.3188 132.125 62.4511 132.125 61.3874ZM137.955 132.702C140.781 130.639 142.623 127.304 142.623 123.545C142.623 117.297 137.539 112.214 131.292 112.214C125.044 112.214 119.961 117.297 119.961 123.545C119.961 127.304 121.802 130.639 124.628 132.702C117.114 135.225 111.48 141.915 110.593 150.198C110.544 150.657 110.692 151.116 111.002 151.46C111.311 151.804 111.751 152 112.213 152H150.37C150.832 152 151.272 151.804 151.581 151.46C151.89 151.116 152.038 150.657 151.989 150.198C151.103 141.915 145.469 135.226 137.955 132.702ZM123.218 123.545C123.218 119.093 126.84 115.472 131.292 115.472C135.743 115.472 139.365 119.093 139.365 123.545C139.365 127.995 135.746 131.615 131.297 131.618C131.295 131.618 131.293 131.618 131.291 131.618C131.289 131.618 131.288 131.618 131.286 131.618C126.837 131.615 123.218 127.995 123.218 123.545ZM114.12 148.742C115.823 140.723 122.908 134.878 131.287 134.876H131.292H131.296C139.675 134.878 146.759 140.723 148.463 148.742H114.12Z" fill="#00374D"/>
<rect x="0.5" y="0.5" width="201" height="201" rx="100.5" stroke="#00374D"/>
</svg>
