<svg width="203" height="202" viewBox="0 0 203 202" fill="none" xmlns="http://www.w3.org/2000/svg">
<rect x="1" y="0.5" width="201" height="201" rx="100.5" fill="white"/>
<path d="M101.445 116.621L104.294 119.092L109.667 112.544" stroke="#00374D" stroke-width="3" stroke-miterlimit="10" stroke-linecap="round" stroke-linejoin="round"/>
<mask id="mask0_579_8263" style="mask-type:luminance" maskUnits="userSpaceOnUse" x="45" y="41" width="113" height="113">
<path d="M156 152.5V43H46.5V152.5H156Z" fill="white" stroke="white" stroke-width="3"/>
</mask>
<g mask="url(#mask0_579_8263)">
<path d="M102.465 105.701C109.084 105.701 114.453 111.176 114.453 117.94C114.453 124.698 109.084 130.173 102.465 130.173C95.8454 130.173 90.4766 124.698 90.4766 117.94C90.4766 111.176 95.8454 105.701 102.465 105.701Z" stroke="#00374D" stroke-width="3" stroke-miterlimit="10" stroke-linecap="round" stroke-linejoin="round"/>
<path d="M102.359 91.3229V105.701" stroke="#00374D" stroke-width="3" stroke-miterlimit="10" stroke-linecap="round" stroke-linejoin="round"/>
<path d="M110.945 126.591L124.117 140.213" stroke="#00374D" stroke-width="3" stroke-miterlimit="10" stroke-linecap="round" stroke-linejoin="round"/>
<path d="M94.0022 126.591L80.6719 140.512" stroke="#00374D" stroke-width="3" stroke-miterlimit="10" stroke-linecap="round" stroke-linejoin="round"/>
<path d="M150.771 119.154V123.153C150.771 127.843 146.458 133.729 141.18 135.728C138.856 136.606 137.087 136.606 134.768 135.728C129.485 133.729 125.172 127.843 125.172 123.153V119.154" stroke="#00374D" stroke-width="3" stroke-miterlimit="10" stroke-linecap="round" stroke-linejoin="round"/>
<path d="M137.971 116.781C136.947 116.781 135.922 116.414 133.158 115.691C129.583 114.751 130.351 118.787 125.172 119.154C125.172 109.45 131.572 104.53 137.971 104.424C144.371 104.53 150.771 109.45 150.771 119.154C145.591 118.787 146.366 114.751 142.785 115.691C140.021 116.414 138.996 116.781 137.971 116.781Z" stroke="#00374D" stroke-width="3" stroke-miterlimit="10" stroke-linecap="round" stroke-linejoin="round"/>
<path d="M128.281 138.88L136.237 143.645C137.585 144.535 138.354 144.535 139.708 143.645L147.658 138.88" stroke="#00374D" stroke-width="3" stroke-miterlimit="10" stroke-linecap="round" stroke-linejoin="round"/>
<path d="M134.51 152.352H121.125C120.557 152.352 120.094 151.879 120.094 151.299V147.849C120.094 140.686 125.713 139.602 130.483 138.27C132.167 137.802 132.607 135.591 132.954 134.875M142.984 134.875C143.332 135.591 143.777 137.802 145.455 138.27C150.232 139.602 155.844 140.686 155.844 147.849V151.299C155.844 151.879 155.381 152.352 154.813 152.352H141.965" stroke="#00374D" stroke-width="3" stroke-miterlimit="10" stroke-linecap="round" stroke-linejoin="round"/>
<path d="M64.5183 114.925C63.4932 114.925 62.4684 114.558 59.7047 113.835C56.1236 112.895 56.8984 116.93 51.7188 117.298C51.7188 107.594 58.1185 102.674 64.5183 102.568C70.918 102.674 77.3178 107.594 77.3178 117.298C72.1382 116.93 72.907 112.895 69.3318 113.835C66.5681 114.558 65.5433 114.925 64.5183 114.925Z" stroke="#00374D" stroke-width="3" stroke-miterlimit="10" stroke-linecap="round" stroke-linejoin="round"/>
<path d="M77.3178 117.298V121.297C77.3178 125.987 73.0045 131.873 67.7212 133.872C65.4029 134.75 63.6336 134.75 61.3094 133.872C56.032 131.873 51.7188 125.987 51.7188 121.297V117.298" stroke="#00374D" stroke-width="3" stroke-miterlimit="10" stroke-linecap="round" stroke-linejoin="round"/>
<path d="M60.7455 150.496H47.6716C47.1042 150.496 46.6406 150.023 46.6406 149.443V145.993C46.6406 138.83 52.2533 137.746 57.0302 136.413C58.708 135.946 59.1532 133.735 59.501 133.019M69.5306 133.019C69.8782 133.735 70.3177 135.946 72.0017 136.413C76.7722 137.746 82.3912 138.83 82.3912 145.993V149.443C82.3912 150.023 81.9274 150.496 81.3601 150.496H67.9139" stroke="#00374D" stroke-width="3" stroke-miterlimit="10" stroke-linecap="round" stroke-linejoin="round"/>
<path d="M54.8281 137.024L62.7776 141.788C64.132 142.679 64.9006 142.679 66.2491 141.788L74.2045 137.024" stroke="#00374D" stroke-width="3" stroke-miterlimit="10" stroke-linecap="round" stroke-linejoin="round"/>
<path d="M102.698 55.5054C101.673 55.5054 100.648 55.1378 97.8844 54.4092C94.3092 53.4685 95.0781 57.5108 89.8984 57.8784C89.8984 48.1744 96.2982 43.2539 102.698 43.148C109.104 43.2539 115.503 48.1744 115.503 57.8784C110.318 57.5108 111.093 53.4685 107.518 54.4092C104.754 55.1378 103.729 55.5054 102.698 55.5054Z" stroke="#00374D" stroke-width="3" stroke-miterlimit="10" stroke-linecap="round" stroke-linejoin="round"/>
<path d="M115.503 57.8785V61.8773C115.503 66.5671 111.184 72.4532 105.907 74.4463C103.589 75.3245 101.813 75.3245 99.495 74.4463C94.2178 72.4532 89.8984 66.5671 89.8984 61.8773V57.8785" stroke="#00374D" stroke-width="3" stroke-miterlimit="10" stroke-linecap="round" stroke-linejoin="round"/>
<path d="M107.716 73.5929C108.058 74.3092 108.504 76.5265 110.187 76.9936C114.958 78.3203 120.577 79.4104 120.577 86.5669V90.0175C120.577 90.5967 120.113 91.0699 119.546 91.0699H85.8513C85.2839 91.0699 84.8203 90.5967 84.8203 90.0175V86.5669C84.8203 79.4104 90.4389 78.3203 95.2099 76.9936C96.8936 76.5265 97.339 74.3092 97.6807 73.5929" stroke="#00374D" stroke-width="3" stroke-miterlimit="10" stroke-linecap="round" stroke-linejoin="round"/>
<path d="M93 77.6039L100.955 82.3625C102.304 83.253 103.078 83.253 104.427 82.3625L112.376 77.6039" stroke="#00374D" stroke-width="3" stroke-miterlimit="10" stroke-linecap="round" stroke-linejoin="round"/>
</g>
<rect x="1" y="0.5" width="201" height="201" rx="100.5" stroke="#00374D"/>
</svg>
