<svg width="13" height="8" viewBox="0 0 13 8" fill="none" xmlns="http://www.w3.org/2000/svg">
<path d="M0.317118 0.676659C0.216593 0.776978 0.13684 0.896138 0.0824248 1.02732C0.0280095 1.1585 0 1.29912 0 1.44114C0 1.58316 0.0280095 1.72378 0.0824248 1.85496C0.13684 1.98614 0.216593 2.1053 0.317118 2.20562L5.29438 7.18288C5.3947 7.28341 5.51386 7.36316 5.64504 7.41758C5.77622 7.47199 5.91684 7.5 6.05886 7.5C6.20088 7.5 6.3415 7.47199 6.47268 7.41758C6.60386 7.36316 6.72302 7.28341 6.82334 7.18288L11.8006 2.20562C11.901 2.10523 11.9806 1.98604 12.035 1.85487C12.0893 1.7237 12.1173 1.58312 12.1173 1.44114C12.1173 1.29916 12.0893 1.15858 12.035 1.02741C11.9806 0.896236 11.901 0.777052 11.8006 0.676659C11.7002 0.576266 11.581 0.49663 11.4499 0.442298C11.3187 0.387966 11.1781 0.360001 11.0361 0.360001C10.8941 0.360001 10.7536 0.387966 10.6224 0.442298C10.4912 0.49663 10.372 0.576266 10.2716 0.676659L6.05344 4.88402L1.84608 0.676659C1.42318 0.253755 0.729178 0.264598 0.317118 0.676659Z" fill="#9E9E9E"/>
</svg>
