<svg width="22" height="21" viewBox="0 0 22 21" fill="none" xmlns="http://www.w3.org/2000/svg">
<path d="M2.25001 10.5C2.24979 9.05176 2.63082 7.62893 3.35482 6.37459C4.07882 5.12025 5.12026 4.07861 6.37446 3.35437C7.62865 2.63013 9.0514 2.24881 10.4997 2.24875C11.948 2.2487 13.3708 2.6299 14.625 3.35405C14.7972 3.45193 15.0011 3.47775 15.1922 3.42586C15.3833 3.37397 15.5462 3.24858 15.6452 3.07707C15.7442 2.90555 15.7714 2.70183 15.7208 2.51036C15.6702 2.31888 15.5459 2.15521 15.375 2.05505C13.5163 0.981918 11.3554 0.552077 9.22754 0.832185C7.09964 1.11229 5.12362 2.0867 3.60594 3.60428C2.08826 5.12186 1.11373 7.09782 0.833488 9.2257C0.553243 11.3536 0.982945 13.5145 2.05595 15.3733C3.12896 17.232 4.78531 18.6848 6.76813 19.5063C8.75094 20.3278 10.9494 20.4721 13.0226 19.9168C15.0958 19.3615 16.9278 18.1377 18.2345 16.4351C19.5413 14.7325 20.2497 12.6463 20.25 10.5C20.25 10.3011 20.171 10.1104 20.0303 9.96972C19.8897 9.82906 19.6989 9.75005 19.5 9.75005C19.3011 9.75005 19.1103 9.82906 18.9697 9.96972C18.829 10.1104 18.75 10.3011 18.75 10.5C18.75 12.6881 17.8808 14.7865 16.3336 16.3337C14.7865 17.8809 12.6881 18.75 10.5 18.75C8.31198 18.75 6.21356 17.8809 4.66638 16.3337C3.11921 14.7865 2.25001 12.6881 2.25001 10.5Z" fill="#9E9E9E"/>
<path d="M21.5319 3.53097C21.6017 3.46124 21.657 3.37846 21.6947 3.28735C21.7325 3.19624 21.7519 3.09859 21.7519 2.99997C21.7519 2.90135 21.7325 2.8037 21.6947 2.7126C21.657 2.62149 21.6017 2.5387 21.5319 2.46897C21.4622 2.39924 21.3794 2.34392 21.2883 2.30619C21.1972 2.26845 21.0996 2.24902 21.0009 2.24902C20.9023 2.24902 20.8047 2.26845 20.7136 2.30619C20.6225 2.34392 20.5397 2.39924 20.4699 2.46897L10.5009 12.4395L6.53195 8.46897C6.46222 8.39924 6.37943 8.34392 6.28832 8.30619C6.19721 8.26845 6.09956 8.24902 6.00095 8.24902C5.90233 8.24902 5.80468 8.26845 5.71357 8.30619C5.62246 8.34392 5.53968 8.39924 5.46995 8.46897C5.40022 8.5387 5.3449 8.62149 5.30716 8.71259C5.26942 8.8037 5.25 8.90135 5.25 8.99997C5.25 9.09859 5.26942 9.19624 5.30716 9.28735C5.3449 9.37846 5.40022 9.46124 5.46995 9.53097L9.96995 14.031C10.0396 14.1008 10.1224 14.1562 10.2135 14.194C10.3046 14.2318 10.4023 14.2513 10.5009 14.2513C10.5996 14.2513 10.6973 14.2318 10.7884 14.194C10.8795 14.1562 10.9623 14.1008 11.0319 14.031L21.5319 3.53097Z" fill="#9E9E9E"/>
</svg>
