<svg width="48" height="48" viewBox="0 0 48 48" fill="none" xmlns="http://www.w3.org/2000/svg">
<path d="M38.46 30.52L33.38 29.94C32.7826 29.8699 32.1772 29.936 31.6091 30.1334C31.041 30.3309 30.525 30.6545 30.1 31.08L26.42 34.76C20.7423 31.8725 16.1275 27.2576 13.24 21.58L16.94 17.88C17.8 17.02 18.22 15.82 18.08 14.6L17.5 9.56002C17.3866 8.58437 16.9183 7.68449 16.1844 7.03172C15.4505 6.37894 14.5022 6.01886 13.52 6.02002H10.06C7.79996 6.02002 5.91996 7.90002 6.05996 10.16C7.11996 27.24 20.78 40.88 37.84 41.94C40.1 42.08 41.98 40.2 41.98 37.94V34.48C42 32.46 40.48 30.76 38.46 30.52Z" fill="#00374D"/>
</svg>
